<?xml version="1.0" encoding="utf-8"?>
<!-- Generator: Adobe Illustrator 27.4.1, SVG Export Plug-In . SVG Version: 6.00 Build 0)  -->
<svg version="1.1" id="katman_1" xmlns="http://www.w3.org/2000/svg" xmlns:xlink="http://www.w3.org/1999/xlink" x="0px" y="0px"
	 viewBox="0 0 1440 721" style="enable-background:new 0 0 1440 721;" xml:space="preserve">
<style type="text/css">
	.st0{opacity:0.1;fill:url(#SVGID_1_);enable-background:new    ;}
	.st1{fill-rule:evenodd;clip-rule:evenodd;fill:url(#SVGID_00000152982997133668312720000003444629689098324666_);}
	.st2{fill-rule:evenodd;clip-rule:evenodd;fill:url(#SVGID_00000171691336321782095660000002516186928423670408_);}
	.st3{fill-rule:evenodd;clip-rule:evenodd;fill:url(#SVGID_00000062175743771872263660000007515723539545906622_);}
	.st4{fill-rule:evenodd;clip-rule:evenodd;fill:url(#SVGID_00000002371785354598725940000014444987536374998153_);}
	.st5{fill-rule:evenodd;clip-rule:evenodd;fill:url(#SVGID_00000066482386603205029990000010663339827528645249_);}
	.st6{fill-rule:evenodd;clip-rule:evenodd;fill:url(#SVGID_00000031208441701812821430000012525741959190799008_);}
	.st7{fill-rule:evenodd;clip-rule:evenodd;fill:url(#SVGID_00000001653668321851730080000007937136140315584647_);}
	.st8{fill-rule:evenodd;clip-rule:evenodd;fill:url(#SVGID_00000021114405405691777480000007513413797528476291_);}
	.st9{fill-rule:evenodd;clip-rule:evenodd;fill:url(#SVGID_00000101099998923323798900000011103918153661853079_);}
	.st10{fill-rule:evenodd;clip-rule:evenodd;fill:url(#SVGID_00000031890990865443276490000002493624184171186620_);}
	.st11{fill-rule:evenodd;clip-rule:evenodd;fill:url(#SVGID_00000170267202469873856790000013148095589459080066_);}
	.st12{fill-rule:evenodd;clip-rule:evenodd;fill:url(#SVGID_00000034069246116516957420000007712283404239229097_);}
	.st13{fill-rule:evenodd;clip-rule:evenodd;fill:url(#SVGID_00000142886335699068260390000003102385926650800063_);}
	.st14{fill-rule:evenodd;clip-rule:evenodd;fill:url(#SVGID_00000095303164476935005870000007730011112624178346_);}
	.st15{fill-rule:evenodd;clip-rule:evenodd;fill:url(#SVGID_00000159433387462678361310000012438932379441944967_);}
	.st16{fill-rule:evenodd;clip-rule:evenodd;fill:url(#SVGID_00000021110402080667118920000004529149750982387380_);}
	.st17{fill-rule:evenodd;clip-rule:evenodd;fill:url(#SVGID_00000130622756451566100940000004970693324153236156_);}
	.st18{fill-rule:evenodd;clip-rule:evenodd;fill:url(#SVGID_00000167382432450208126370000004812128423306691991_);}
	.st19{fill-rule:evenodd;clip-rule:evenodd;fill:url(#SVGID_00000114787633817964301830000006359563454798307738_);}
	.st20{fill-rule:evenodd;clip-rule:evenodd;fill:url(#SVGID_00000085243018796378368800000003081184357241905817_);}
	.st21{fill-rule:evenodd;clip-rule:evenodd;fill:url(#SVGID_00000132056103165200041680000002662194570019089301_);}
	.st22{fill-rule:evenodd;clip-rule:evenodd;fill:url(#SVGID_00000072980766849948732780000017040071599571673731_);}
	.st23{fill-rule:evenodd;clip-rule:evenodd;fill:url(#SVGID_00000083777931475594742880000007905871136421762194_);}
	.st24{fill-rule:evenodd;clip-rule:evenodd;fill:url(#SVGID_00000062191175185769906730000012432660488496074663_);}
	.st25{fill-rule:evenodd;clip-rule:evenodd;fill:url(#SVGID_00000163782854077897486660000014587986965068579005_);}
	.st26{fill-rule:evenodd;clip-rule:evenodd;fill:url(#SVGID_00000165939899456377757770000006308058777702924943_);}
	.st27{fill-rule:evenodd;clip-rule:evenodd;fill:url(#SVGID_00000141443763715699229870000000656364682180170654_);}
	.st28{fill-rule:evenodd;clip-rule:evenodd;fill:url(#SVGID_00000059296241320395221920000000455395420529868194_);}
	.st29{fill-rule:evenodd;clip-rule:evenodd;fill:url(#SVGID_00000127036794065901933270000016359556639582587541_);}
	.st30{fill-rule:evenodd;clip-rule:evenodd;fill:url(#SVGID_00000178203832775466445480000012409353347846978693_);}
	.st31{fill-rule:evenodd;clip-rule:evenodd;fill:url(#SVGID_00000140000727535662338670000002408500663155128218_);}
	.st32{fill-rule:evenodd;clip-rule:evenodd;fill:url(#SVGID_00000168819419766242597100000004691532472686052791_);}
	.st33{fill-rule:evenodd;clip-rule:evenodd;fill:url(#SVGID_00000020368168764424697600000014381450415546360745_);}
	.st34{fill-rule:evenodd;clip-rule:evenodd;fill:url(#SVGID_00000008126097568894064180000017492962755534084528_);}
	.st35{fill-rule:evenodd;clip-rule:evenodd;fill:url(#SVGID_00000078007301204681789460000015426076507136714388_);}
	.st36{fill-rule:evenodd;clip-rule:evenodd;fill:url(#SVGID_00000109011355022764005390000014752732113388028804_);}
	.st37{fill-rule:evenodd;clip-rule:evenodd;fill:url(#SVGID_00000140695642016494390300000011306272678013832585_);}
	.st38{fill-rule:evenodd;clip-rule:evenodd;fill:url(#SVGID_00000182496928819926388060000018282946904184018569_);}
	.st39{fill-rule:evenodd;clip-rule:evenodd;fill:url(#SVGID_00000138542687656961359550000008083200491307644607_);}
	.st40{fill-rule:evenodd;clip-rule:evenodd;fill:url(#SVGID_00000175306628328016523800000015596936475874139294_);}
	.st41{fill-rule:evenodd;clip-rule:evenodd;fill:url(#SVGID_00000059276362760725831610000014231916249734814137_);}
	.st42{fill-rule:evenodd;clip-rule:evenodd;fill:url(#SVGID_00000021836196742279296920000008644840174714419887_);}
	.st43{fill-rule:evenodd;clip-rule:evenodd;fill:url(#SVGID_00000145755054237398628350000004500847175494572435_);}
	.st44{opacity:0.4721;}
	.st45{fill:none;}
	.st46{fill:none;stroke:url(#path-2_00000127758188667401382590000009883102136260881075_);stroke-width:2.4895;}
	.st47{opacity:0.6;}
	.st48{fill:none;stroke:url(#path-6_00000036223237639977046720000014878068452693822120_);stroke-width:2.4895;}
	.st49{opacity:0.4;}
	.st50{fill:none;stroke:url(#path-10_00000133524048195184659040000017361806577548711559_);stroke-width:2.4895;}
	.st51{opacity:0.2;}
	.st52{fill:none;stroke:url(#path-14_00000016759121793273100810000012767044417937024929_);stroke-width:2.4895;}
	.st53{opacity:0.1;}
	.st54{fill:none;stroke:url(#path-18_00000169527418315941636560000010370942714757987473_);stroke-width:2.4895;}
	.st55{display:none;}
	.st56{display:inline;fill:none;stroke:#805CB0;stroke-width:2;stroke-linecap:round;stroke-linejoin:round;stroke-miterlimit:10;}
	.st57{display:inline;}
	.st58{opacity:0.6;fill:#805CB0;enable-background:new    ;}
	.st59{fill:none;stroke:#805CB0;stroke-width:2;stroke-linecap:round;stroke-linejoin:round;stroke-miterlimit:10;}
	.st60{opacity:0.5;fill:#805CB0;enable-background:new    ;}
	.st61{opacity:0.25;fill:#805CB0;enable-background:new    ;}
	.st62{opacity:0.4;fill:#805CB0;enable-background:new    ;}
	.st63{opacity:0.3;fill:#805CB0;enable-background:new    ;}
	
		.st64{display:inline;fill:none;stroke:#805CB0;stroke-width:1.0028;stroke-linecap:round;stroke-linejoin:round;stroke-miterlimit:10;}
	.st65{fill:none;stroke:#805CB0;stroke-width:1.0028;stroke-linecap:round;stroke-linejoin:round;stroke-miterlimit:10;}
	.st66{display:none;opacity:0.5;}
	
		.st67{display:inline;fill:none;stroke:#805CB0;stroke-width:0.6897;stroke-linecap:round;stroke-linejoin:round;stroke-miterlimit:10;}
	.st68{fill:none;stroke:#805CB0;stroke-width:0.6897;stroke-linecap:round;stroke-linejoin:round;stroke-miterlimit:10;}
</style>
<g>
	<g>
		
			<linearGradient id="SVGID_1_" gradientUnits="userSpaceOnUse" x1="720" y1="-340.9568" x2="720" y2="-428.9568" gradientTransform="matrix(1 0 0 -1 0 292.0432)">
			<stop  offset="0" style="stop-color:#7172B0"/>
			<stop  offset="1" style="stop-color:#7172B0;stop-opacity:0"/>
		</linearGradient>
		<path class="st0" d="M1440,721H0v-88h1440V721z"/>
		
			<linearGradient id="SVGID_00000102515218811523592100000015917682295157206955_" gradientUnits="userSpaceOnUse" x1="934.8" y1="-342.9568" x2="934.8" y2="-219.9818" gradientTransform="matrix(1 0 0 -1 0 292.0432)">
			<stop  offset="0" style="stop-color:#7172B0"/>
			<stop  offset="1" style="stop-color:#3E2296"/>
		</linearGradient>
		<path style="fill-rule:evenodd;clip-rule:evenodd;fill:url(#SVGID_00000102515218811523592100000015917682295157206955_);" d="
			M1079.8,635c0.2-0.1,0.2-0.2,0-0.3L790.5,512.1c-0.2-0.1-0.5-0.1-0.7,0c-0.2,0.1-0.2,0.2,0,0.3L1079.1,635
			C1079.3,635,1079.6,635,1079.8,635z"/>
		
			<linearGradient id="SVGID_00000053538610524825908050000007129453670262504865_" gradientUnits="userSpaceOnUse" x1="1185.35" y1="-292.0723" x2="1185.35" y2="-219.9568" gradientTransform="matrix(1 0 0 -1 0 292.0432)">
			<stop  offset="0" style="stop-color:#7172B0"/>
			<stop  offset="1" style="stop-color:#3E2296"/>
		</linearGradient>
		<path style="fill-rule:evenodd;clip-rule:evenodd;fill:url(#SVGID_00000053538610524825908050000007129453670262504865_);" d="
			M1440.1,584c0.1-0.1,0-0.2-0.3-0.2L931.2,512c-0.3,0-0.5,0-0.6,0.1s0,0.2,0.3,0.2l508.5,71.7C1439.7,584.2,1440,584.1,1440.1,584z
			"/>
		
			<linearGradient id="SVGID_00000072248774324584840690000003508084502058133416_" gradientUnits="userSpaceOnUse" x1="719.45" y1="-342.9568" x2="719.45" y2="-219.9568" gradientTransform="matrix(1 0 0 -1 0 292.0432)">
			<stop  offset="0" style="stop-color:#7172B0"/>
			<stop  offset="1" style="stop-color:#3E2296"/>
		</linearGradient>
		<path style="fill-rule:evenodd;clip-rule:evenodd;fill:url(#SVGID_00000072248774324584840690000003508084502058133416_);" d="
			M719.2,635c0.3,0,0.5-0.1,0.5-0.2l0.5-122.6c0-0.1-0.2-0.2-0.5-0.2s-0.5,0.1-0.5,0.2l-0.5,122.6C718.7,634.9,718.9,635,719.2,635z
			"/>
		
			<linearGradient id="SVGID_00000169534849499280593580000008158519171866177421_" gradientUnits="userSpaceOnUse" x1="1326.2" y1="-234.0568" x2="1326.2" y2="-219.9757" gradientTransform="matrix(1 0 0 -1 0 292.0432)">
			<stop  offset="0" style="stop-color:#7172B0"/>
			<stop  offset="1" style="stop-color:#3E2296"/>
		</linearGradient>
		<path style="fill-rule:evenodd;clip-rule:evenodd;fill:url(#SVGID_00000169534849499280593580000008158519171866177421_);" d="
			M1440.1,525.9c0-0.1-0.1-0.2-0.4-0.2L1212.9,512c-0.3,0-0.5,0.1-0.6,0.2c0,0.1,0.1,0.2,0.4,0.2l226.7,13.7
			C1439.8,526.1,1440,526,1440.1,525.9z"/>
		
			<linearGradient id="SVGID_00000113311380535811716410000005841820824429869474_" gradientUnits="userSpaceOnUse" x1="1361.45" y1="-228.6202" x2="1361.45" y2="-219.9787" gradientTransform="matrix(1 0 0 -1 0 292.0432)">
			<stop  offset="0" style="stop-color:#7172B0"/>
			<stop  offset="1" style="stop-color:#3E2296"/>
		</linearGradient>
		<path style="fill-rule:evenodd;clip-rule:evenodd;fill:url(#SVGID_00000113311380535811716410000005841820824429869474_);" d="
			M1440.1,520.5c0-0.1-0.1-0.2-0.4-0.2l-156.3-8.3c-0.3,0-0.5,0.1-0.6,0.2c0,0.1,0.2,0.2,0.4,0.2l156.3,8.3
			C1439.8,520.7,1440,520.6,1440.1,520.5z"/>
		
			<linearGradient id="SVGID_00000006668674183330387290000002053244421337453994_" gradientUnits="userSpaceOnUse" x1="1255.8" y1="-251.4681" x2="1255.8" y2="-219.9931" gradientTransform="matrix(1 0 0 -1 0 292.0432)">
			<stop  offset="0" style="stop-color:#7172B0"/>
			<stop  offset="1" style="stop-color:#3E2296"/>
		</linearGradient>
		<path style="fill-rule:evenodd;clip-rule:evenodd;fill:url(#SVGID_00000006668674183330387290000002053244421337453994_);" d="
			M1440.1,543.4c0.1-0.1-0.1-0.2-0.4-0.2L1072.1,512c-0.3,0-0.5,0-0.6,0.1s0.1,0.2,0.4,0.2l367.6,31.1
			C1439.7,543.5,1440,543.5,1440.1,543.4z"/>
		
			<linearGradient id="SVGID_00000119803941542406065670000008886260499365233084_" gradientUnits="userSpaceOnUse" x1="1220.5499" y1="-266.6722" x2="1220.5499" y2="-219.9568" gradientTransform="matrix(1 0 0 -1 0 292.0432)">
			<stop  offset="0" style="stop-color:#7172B0"/>
			<stop  offset="1" style="stop-color:#3E2296"/>
		</linearGradient>
		<path style="fill-rule:evenodd;clip-rule:evenodd;fill:url(#SVGID_00000119803941542406065670000008886260499365233084_);" d="
			M1440.1,558.6c0.1-0.1-0.1-0.2-0.3-0.2L1001.6,512c-0.3,0-0.5,0-0.6,0.1s0.1,0.2,0.3,0.2l438.1,46.3
			C1439.7,558.8,1440,558.7,1440.1,558.6z"/>
		
			<linearGradient id="SVGID_00000056401275574937014480000018066134295287453348_" gradientUnits="userSpaceOnUse" x1="1291" y1="-241.3136" x2="1291" y2="-219.9792" gradientTransform="matrix(1 0 0 -1 0 292.0432)">
			<stop  offset="0" style="stop-color:#7172B0"/>
			<stop  offset="1" style="stop-color:#3E2296"/>
		</linearGradient>
		<path style="fill-rule:evenodd;clip-rule:evenodd;fill:url(#SVGID_00000056401275574937014480000018066134295287453348_);" d="
			M1440.1,533.2c0.1-0.1-0.1-0.2-0.4-0.2l-297.2-21c-0.3,0-0.5,0-0.6,0.2c-0.1,0.1,0.1,0.2,0.4,0.2l297.2,21
			C1439.8,533.4,1440,533.3,1440.1,533.2z"/>
		
			<linearGradient id="SVGID_00000088127604179437951470000012524495245724311741_" gradientUnits="userSpaceOnUse" x1="113.35" y1="-234.037" x2="113.35" y2="-219.9789" gradientTransform="matrix(1 0 0 -1 0 292.0432)">
			<stop  offset="0" style="stop-color:#7172B0"/>
			<stop  offset="1" style="stop-color:#3E2296"/>
		</linearGradient>
		<path style="fill-rule:evenodd;clip-rule:evenodd;fill:url(#SVGID_00000088127604179437951470000012524495245724311741_);" d="
			M-0.4,525.9c0,0.1,0.3,0.2,0.6,0.2l226.5-13.7c0.3,0,0.5-0.1,0.4-0.2c0-0.1-0.3-0.2-0.6-0.2L0,525.7
			C-0.3,525.7-0.5,525.8-0.4,525.9z"/>
		
			<linearGradient id="SVGID_00000052802788351638077840000004654166102656907941_" gradientUnits="userSpaceOnUse" x1="1396.7" y1="-224.3899" x2="1396.7" y2="-219.9789" gradientTransform="matrix(1 0 0 -1 0 292.0432)">
			<stop  offset="0" style="stop-color:#7172B0"/>
			<stop  offset="1" style="stop-color:#3E2296"/>
		</linearGradient>
		<path style="fill-rule:evenodd;clip-rule:evenodd;fill:url(#SVGID_00000052802788351638077840000004654166102656907941_);" d="
			M1440.1,516.3c0-0.1-0.2-0.2-0.4-0.2l-85.8-4c-0.3,0-0.5,0.1-0.6,0.2c0,0.1,0.2,0.2,0.4,0.2l85.8,4
			C1439.8,516.4,1440.1,516.4,1440.1,516.3z"/>
		
			<linearGradient id="SVGID_00000097467441520497063280000016646294779897025711_" gradientUnits="userSpaceOnUse" x1="1431.95" y1="-221.0057" x2="1431.95" y2="-219.9792" gradientTransform="matrix(1 0 0 -1 0 292.0432)">
			<stop  offset="0" style="stop-color:#7172B0"/>
			<stop  offset="1" style="stop-color:#3E2296"/>
		</linearGradient>
		<path style="fill-rule:evenodd;clip-rule:evenodd;fill:url(#SVGID_00000097467441520497063280000016646294779897025711_);" d="
			M1440.1,512.9c0-0.1-0.2-0.2-0.4-0.2l-15.3-0.6c-0.3,0-0.5,0.1-0.6,0.2c0,0.1,0.2,0.2,0.4,0.2l15.4,0.6
			C1439.8,513.1,1440.1,513,1440.1,512.9z"/>
		
			<linearGradient id="SVGID_00000055664823204218450660000005355746312305367739_" gradientUnits="userSpaceOnUse" x1="148.55" y1="-241.2826" x2="148.55" y2="-219.9825" gradientTransform="matrix(1 0 0 -1 0 292.0432)">
			<stop  offset="0" style="stop-color:#7172B0"/>
			<stop  offset="1" style="stop-color:#3E2296"/>
		</linearGradient>
		<path style="fill-rule:evenodd;clip-rule:evenodd;fill:url(#SVGID_00000055664823204218450660000005355746312305367739_);" d="
			M-0.4,533.2c0.1,0.1,0.3,0.2,0.6,0.2l296.9-20.9c0.3,0,0.5-0.1,0.4-0.2c-0.1-0.1-0.3-0.2-0.6-0.2L0,533
			C-0.3,533-0.5,533.1-0.4,533.2z"/>
		
			<linearGradient id="SVGID_00000163058625587576861140000006462339948177047480_" gradientUnits="userSpaceOnUse" x1="218.95" y1="-266.5982" x2="218.95" y2="-219.9412" gradientTransform="matrix(1 0 0 -1 0 292.0432)">
			<stop  offset="0" style="stop-color:#7172B0"/>
			<stop  offset="1" style="stop-color:#3E2296"/>
		</linearGradient>
		<path style="fill-rule:evenodd;clip-rule:evenodd;fill:url(#SVGID_00000163058625587576861140000006462339948177047480_);" d="
			M-0.4,558.5c0.1,0.1,0.4,0.2,0.6,0.1L438,512.4c0.3,0,0.4-0.1,0.3-0.2c-0.1-0.1-0.4-0.2-0.6-0.1L-0.1,558.3
			C-0.4,558.3-0.5,558.4-0.4,558.5z"/>
		
			<linearGradient id="SVGID_00000105428735731175895360000008164130831977225877_" gradientUnits="userSpaceOnUse" x1="504.05" y1="-343.0318" x2="504.05" y2="-219.9818" gradientTransform="matrix(1 0 0 -1 0 292.0432)">
			<stop  offset="0" style="stop-color:#7172B0"/>
			<stop  offset="1" style="stop-color:#3E2296"/>
		</linearGradient>
		<path style="fill-rule:evenodd;clip-rule:evenodd;fill:url(#SVGID_00000105428735731175895360000008164130831977225877_);" d="
			M358.5,635c0.2,0.1,0.5,0.1,0.7,0l290.4-122.6c0.2-0.1,0.2-0.2,0-0.3s-0.5-0.1-0.7,0L358.5,634.7
			C358.3,634.8,358.3,634.9,358.5,635z"/>
		
			<linearGradient id="SVGID_00000036961555991130720670000011148403079751467172_" gradientUnits="userSpaceOnUse" x1="78.1" y1="-228.6034" x2="78.1" y2="-219.9787" gradientTransform="matrix(1 0 0 -1 0 292.0432)">
			<stop  offset="0" style="stop-color:#7172B0"/>
			<stop  offset="1" style="stop-color:#3E2296"/>
		</linearGradient>
		<path style="fill-rule:evenodd;clip-rule:evenodd;fill:url(#SVGID_00000036961555991130720670000011148403079751467172_);" d="
			M-0.4,520.5c0,0.1,0.3,0.2,0.6,0.2l156-8.2c0.3,0,0.5-0.1,0.4-0.2c0-0.1-0.3-0.2-0.6-0.2L0,520.3C-0.3,520.3-0.5,520.4-0.4,520.5z
			"/>
		
			<linearGradient id="SVGID_00000119810057418849885140000014200248895348801705_" gradientUnits="userSpaceOnUse" x1="183.7867" y1="-251.3982" x2="183.7867" y2="-219.9528" gradientTransform="matrix(1 0 0 -1 0 292.0432)">
			<stop  offset="0" style="stop-color:#7172B0"/>
			<stop  offset="1" style="stop-color:#3E2296"/>
		</linearGradient>
		<path style="fill-rule:evenodd;clip-rule:evenodd;fill:url(#SVGID_00000119810057418849885140000014200248895348801705_);" d="
			M-0.4,543.3c0.1,0.1,0.3,0.2,0.6,0.1l367.4-31.1c0.3,0,0.4-0.1,0.4-0.2c-0.1-0.1-0.3-0.2-0.6-0.1L-0.1,543.1
			C-0.3,543.1-0.5,543.2-0.4,543.3z"/>
		
			<linearGradient id="SVGID_00000076594690226647215840000002411387922751763609_" gradientUnits="userSpaceOnUse" x1="254.2" y1="-291.9568" x2="254.2" y2="-219.9538" gradientTransform="matrix(1 0 0 -1 0 292.0432)">
			<stop  offset="0" style="stop-color:#7172B0"/>
			<stop  offset="1" style="stop-color:#3E2296"/>
		</linearGradient>
		<path style="fill-rule:evenodd;clip-rule:evenodd;fill:url(#SVGID_00000076594690226647215840000002411387922751763609_);" d="
			M-0.4,583.9C-0.3,584,0,584,0.2,584l508.3-71.6c0.3,0,0.4-0.1,0.3-0.2c-0.1-0.1-0.4-0.1-0.6-0.1L-0.1,583.7
			C-0.4,583.7-0.5,583.8-0.4,583.9z"/>
		
			<linearGradient id="SVGID_00000141420700185318742240000007236017746450342580_" gradientUnits="userSpaceOnUse" x1="7.65" y1="-220.9947" x2="7.65" y2="-219.9792" gradientTransform="matrix(1 0 0 -1 0 292.0432)">
			<stop  offset="0" style="stop-color:#7172B0"/>
			<stop  offset="1" style="stop-color:#3E2296"/>
		</linearGradient>
		<path style="fill-rule:evenodd;clip-rule:evenodd;fill:url(#SVGID_00000141420700185318742240000007236017746450342580_);" d="
			M-0.4,512.9c0,0.1,0.3,0.2,0.6,0.2l15.1-0.6c0.3,0,0.5-0.1,0.4-0.2c0-0.1-0.3-0.2-0.6-0.2L0,512.7C-0.3,512.7-0.5,512.8-0.4,512.9
			z"/>
		
			<linearGradient id="SVGID_00000015320617518256243000000013332653292992180403_" gradientUnits="userSpaceOnUse" x1="42.9" y1="-224.3759" x2="42.9" y2="-219.9759" gradientTransform="matrix(1 0 0 -1 0 292.0432)">
			<stop  offset="0" style="stop-color:#7172B0"/>
			<stop  offset="1" style="stop-color:#3E2296"/>
		</linearGradient>
		<path style="fill-rule:evenodd;clip-rule:evenodd;fill:url(#SVGID_00000015320617518256243000000013332653292992180403_);" d="
			M-0.4,516.3c0,0.1,0.3,0.2,0.6,0.2l85.6-4c0.3,0,0.5-0.1,0.4-0.2c0-0.1-0.3-0.2-0.6-0.2L0,516C-0.3,516.1-0.5,516.2-0.4,516.3z"/>
		
			<linearGradient id="SVGID_00000018930648461439211530000006679402461371068065_" gradientUnits="userSpaceOnUse" x1="288.6176" y1="-342.9568" x2="288.6176" y2="-219.9568" gradientTransform="matrix(1 0 0 -1 0 292.0432)">
			<stop  offset="0" style="stop-color:#7172B0"/>
			<stop  offset="1" style="stop-color:#3E2296"/>
		</linearGradient>
		<path style="fill-rule:evenodd;clip-rule:evenodd;fill:url(#SVGID_00000018930648461439211530000006679402461371068065_);" d="
			M-1.9,634.9c0.1,0.1,0.4,0.1,0.7,0.1L579,512.4c0.2-0.1,0.3-0.2,0.2-0.3s-0.4-0.1-0.7-0.1L-1.7,634.7
			C-2,634.7-2.1,634.8-1.9,634.9z"/>
		
			<linearGradient id="SVGID_00000143595312145298547840000015828272399268544408_" gradientUnits="userSpaceOnUse" x1="1150.2001" y1="-342.9568" x2="1150.2001" y2="-219.9154" gradientTransform="matrix(1 0 0 -1 0 292.0432)">
			<stop  offset="0" style="stop-color:#7172B0"/>
			<stop  offset="1" style="stop-color:#3E2296"/>
		</linearGradient>
		<path style="fill-rule:evenodd;clip-rule:evenodd;fill:url(#SVGID_00000143595312145298547840000015828272399268544408_);" d="
			M1440.3,634.9c0.1-0.1,0-0.2-0.2-0.3L860.8,512c-0.2-0.1-0.5,0-0.7,0.1c-0.1,0.1,0,0.2,0.2,0.3L1439.6,635
			C1439.8,635,1440.1,635,1440.3,634.9z"/>
		
			<linearGradient id="SVGID_00000054962259207842910820000011135126817472072125_" gradientUnits="userSpaceOnUse" x1="719.75" y1="-291.4994" x2="719.75" y2="-291.1224" gradientTransform="matrix(1 0 0 -1 0 292.0432)">
			<stop  offset="0" style="stop-color:#7172B0"/>
			<stop  offset="1" style="stop-color:#3E2296"/>
		</linearGradient>
		<path style="fill-rule:evenodd;clip-rule:evenodd;fill:url(#SVGID_00000054962259207842910820000011135126817472072125_);" d="
			M-0.5,583.4c0,0.1,0.2,0.2,0.5,0.2h1439.5c0.3,0,0.5-0.1,0.5-0.2c0-0.1-0.2-0.2-0.5-0.2H0C-0.2,583.2-0.5,583.2-0.5,583.4z"/>
		
			<linearGradient id="SVGID_00000081622493810936468610000009916090595147556752_" gradientUnits="userSpaceOnUse" x1="719.75" y1="-242.1914" x2="719.75" y2="-241.8144" gradientTransform="matrix(1 0 0 -1 0 292.0432)">
			<stop  offset="0" style="stop-color:#7172B0"/>
			<stop  offset="1" style="stop-color:#3E2296"/>
		</linearGradient>
		<path style="fill-rule:evenodd;clip-rule:evenodd;fill:url(#SVGID_00000081622493810936468610000009916090595147556752_);" d="
			M-0.5,534c0,0.1,0.2,0.2,0.5,0.2h1439.5c0.3,0,0.5-0.1,0.5-0.2s-0.2-0.2-0.5-0.2H0C-0.2,533.9-0.5,533.9-0.5,534z"/>
		
			<linearGradient id="SVGID_00000041263701400294664540000012448523991826044850_" gradientUnits="userSpaceOnUse" x1="719.75" y1="-258.8794" x2="719.75" y2="-258.5014" gradientTransform="matrix(1 0 0 -1 0 292.0432)">
			<stop  offset="0" style="stop-color:#7172B0"/>
			<stop  offset="1" style="stop-color:#3E2296"/>
		</linearGradient>
		<path style="fill-rule:evenodd;clip-rule:evenodd;fill:url(#SVGID_00000041263701400294664540000012448523991826044850_);" d="
			M-0.5,550.7c0,0.1,0.2,0.2,0.5,0.2h1439.5c0.3,0,0.5-0.1,0.5-0.2s-0.2-0.2-0.5-0.2H0C-0.2,550.5-0.5,550.6-0.5,550.7z"/>
		
			<linearGradient id="SVGID_00000090277324244889967080000015147853626949885599_" gradientUnits="userSpaceOnUse" x1="719.75" y1="-277.6404" x2="719.75" y2="-277.2634" gradientTransform="matrix(1 0 0 -1 0 292.0432)">
			<stop  offset="0" style="stop-color:#7172B0"/>
			<stop  offset="1" style="stop-color:#3E2296"/>
		</linearGradient>
		<path style="fill-rule:evenodd;clip-rule:evenodd;fill:url(#SVGID_00000090277324244889967080000015147853626949885599_);" d="
			M-0.5,569.5c0,0.1,0.2,0.2,0.5,0.2h1439.5c0.3,0,0.5-0.1,0.5-0.2c0-0.1-0.2-0.2-0.5-0.2H0C-0.2,569.3-0.5,569.4-0.5,569.5z"/>
		
			<linearGradient id="SVGID_00000001639774892985050220000018210366068107201451_" gradientUnits="userSpaceOnUse" x1="719.75" y1="-310.6053" x2="719.75" y2="-310.2284" gradientTransform="matrix(1 0 0 -1 0 292.0432)">
			<stop  offset="0" style="stop-color:#7172B0"/>
			<stop  offset="1" style="stop-color:#3E2296"/>
		</linearGradient>
		<path style="fill-rule:evenodd;clip-rule:evenodd;fill:url(#SVGID_00000001639774892985050220000018210366068107201451_);" d="
			M-0.5,602.5c0,0.1,0.2,0.2,0.5,0.2h1439.5c0.3,0,0.5-0.1,0.5-0.2c0-0.1-0.2-0.2-0.5-0.2H0C-0.2,602.3-0.5,602.4-0.5,602.5z"/>
		
			<linearGradient id="SVGID_00000045615308046837087990000012351487759434671754_" gradientUnits="userSpaceOnUse" x1="719.75" y1="-267.1264" x2="719.75" y2="-266.7494" gradientTransform="matrix(1 0 0 -1 0 292.0432)">
			<stop  offset="0" style="stop-color:#7172B0"/>
			<stop  offset="1" style="stop-color:#3E2296"/>
		</linearGradient>
		<path style="fill-rule:evenodd;clip-rule:evenodd;fill:url(#SVGID_00000045615308046837087990000012351487759434671754_);" d="
			M-0.5,559c0,0.1,0.2,0.2,0.5,0.2h1439.5c0.3,0,0.5-0.1,0.5-0.2c0-0.1-0.2-0.2-0.5-0.2H0C-0.2,558.8-0.5,558.9-0.5,559z"/>
		
			<linearGradient id="SVGID_00000121986406700776291010000011648902208489870726_" gradientUnits="userSpaceOnUse" x1="719.75" y1="-252.2344" x2="719.75" y2="-251.8574" gradientTransform="matrix(1 0 0 -1 0 292.0432)">
			<stop  offset="0" style="stop-color:#7172B0"/>
			<stop  offset="1" style="stop-color:#3E2296"/>
		</linearGradient>
		<path style="fill-rule:evenodd;clip-rule:evenodd;fill:url(#SVGID_00000121986406700776291010000011648902208489870726_);" d="
			M-0.5,544.1c0,0.1,0.2,0.2,0.5,0.2h1439.5c0.3,0,0.5-0.1,0.5-0.2c0-0.1-0.2-0.2-0.5-0.2H0C-0.2,543.9-0.5,544-0.5,544.1z"/>
		
			<linearGradient id="SVGID_00000174575889649802108090000000461092576650344854_" gradientUnits="userSpaceOnUse" x1="719.75" y1="-225.2454" x2="719.75" y2="-224.8684" gradientTransform="matrix(1 0 0 -1 0 292.0432)">
			<stop  offset="0" style="stop-color:#7172B0"/>
			<stop  offset="1" style="stop-color:#3E2296"/>
		</linearGradient>
		<path style="fill-rule:evenodd;clip-rule:evenodd;fill:url(#SVGID_00000174575889649802108090000000461092576650344854_);" d="
			M-0.5,517.1c0,0.1,0.2,0.2,0.5,0.2h1439.5c0.3,0,0.5-0.1,0.5-0.2s-0.2-0.2-0.5-0.2H0C-0.2,516.9-0.5,517-0.5,517.1z"/>
		
			<linearGradient id="SVGID_00000032647111689429061520000007056384825405742733_" gradientUnits="userSpaceOnUse" x1="719.75" y1="-229.5074" x2="719.75" y2="-229.1294" gradientTransform="matrix(1 0 0 -1 0 292.0432)">
			<stop  offset="0" style="stop-color:#7172B0"/>
			<stop  offset="1" style="stop-color:#3E2296"/>
		</linearGradient>
		<path style="fill-rule:evenodd;clip-rule:evenodd;fill:url(#SVGID_00000032647111689429061520000007056384825405742733_);" d="
			M-0.5,521.4c0,0.1,0.2,0.2,0.5,0.2h1439.5c0.3,0,0.5-0.1,0.5-0.2s-0.2-0.2-0.5-0.2H0C-0.2,521.2-0.5,521.3-0.5,521.4z"/>
		
			<linearGradient id="SVGID_00000082340642439098764000000002598066558616939914_" gradientUnits="userSpaceOnUse" x1="719.75" y1="-232.0564" x2="719.75" y2="-231.6794" gradientTransform="matrix(1 0 0 -1 0 292.0432)">
			<stop  offset="0" style="stop-color:#7172B0"/>
			<stop  offset="1" style="stop-color:#3E2296"/>
		</linearGradient>
		<path style="fill-rule:evenodd;clip-rule:evenodd;fill:url(#SVGID_00000082340642439098764000000002598066558616939914_);" d="
			M-0.5,523.9c0,0.1,0.2,0.2,0.5,0.2h1439.5c0.3,0,0.5-0.1,0.5-0.2s-0.2-0.2-0.5-0.2H0C-0.2,523.7-0.5,523.8-0.5,523.9z"/>
		
			<linearGradient id="SVGID_00000146497978583059188890000008594457081401795481_" gradientUnits="userSpaceOnUse" x1="719.75" y1="-227.2524" x2="719.75" y2="-226.8754" gradientTransform="matrix(1 0 0 -1 0 292.0432)">
			<stop  offset="0" style="stop-color:#7172B0"/>
			<stop  offset="1" style="stop-color:#3E2296"/>
		</linearGradient>
		<path style="fill-rule:evenodd;clip-rule:evenodd;fill:url(#SVGID_00000146497978583059188890000008594457081401795481_);" d="
			M-0.5,519.1c0,0.1,0.2,0.2,0.5,0.2h1439.5c0.3,0,0.5-0.1,0.5-0.2c0-0.1-0.2-0.2-0.5-0.2H0C-0.2,518.9-0.5,519-0.5,519.1z"/>
		
			<linearGradient id="SVGID_00000052073344252656021040000000223825750260562848_" gradientUnits="userSpaceOnUse" x1="719.75" y1="-221.8244" x2="719.75" y2="-221.4474" gradientTransform="matrix(1 0 0 -1 0 292.0432)">
			<stop  offset="0" style="stop-color:#7172B0"/>
			<stop  offset="1" style="stop-color:#3E2296"/>
		</linearGradient>
		<path style="fill-rule:evenodd;clip-rule:evenodd;fill:url(#SVGID_00000052073344252656021040000000223825750260562848_);" d="
			M-0.5,513.7c0,0.1,0.2,0.2,0.5,0.2h1439.5c0.3,0,0.5-0.1,0.5-0.2c0-0.1-0.2-0.2-0.5-0.2H0C-0.2,513.5-0.5,513.6-0.5,513.7z"/>
		
			<linearGradient id="SVGID_00000013893218069378414810000014613197980740198814_" gradientUnits="userSpaceOnUse" x1="719.75" y1="-223.4464" x2="719.75" y2="-223.0694" gradientTransform="matrix(1 0 0 -1 0 292.0432)">
			<stop  offset="0" style="stop-color:#7172B0"/>
			<stop  offset="1" style="stop-color:#3E2296"/>
		</linearGradient>
		<path style="fill-rule:evenodd;clip-rule:evenodd;fill:url(#SVGID_00000013893218069378414810000014613197980740198814_);" d="
			M-0.5,515.3c0,0.1,0.2,0.2,0.5,0.2h1439.5c0.3,0,0.5-0.1,0.5-0.2c0-0.1-0.2-0.2-0.5-0.2H0C-0.2,515.1-0.5,515.2-0.5,515.3z"/>
		
			<linearGradient id="SVGID_00000098913322638148757540000004606301738172106382_" gradientUnits="userSpaceOnUse" x1="719.75" y1="-220.3568" x2="719.75" y2="-219.9788" gradientTransform="matrix(1 0 0 -1 0 292.0432)">
			<stop  offset="0" style="stop-color:#7172B0"/>
			<stop  offset="1" style="stop-color:#3E2296"/>
		</linearGradient>
		<path style="fill-rule:evenodd;clip-rule:evenodd;fill:url(#SVGID_00000098913322638148757540000004606301738172106382_);" d="
			M-0.5,512.2c0,0.1,0.2,0.2,0.5,0.2h1439.5c0.3,0,0.5-0.1,0.5-0.2s-0.2-0.2-0.5-0.2H0C-0.2,512-0.5,512.1-0.5,512.2z"/>
		
			<linearGradient id="SVGID_00000144303872525693520590000012918575725395960978_" gradientUnits="userSpaceOnUse" x1="719.75" y1="-238.3044" x2="719.75" y2="-237.9274" gradientTransform="matrix(1 0 0 -1 0 292.0432)">
			<stop  offset="0" style="stop-color:#7172B0"/>
			<stop  offset="1" style="stop-color:#3E2296"/>
		</linearGradient>
		<path style="fill-rule:evenodd;clip-rule:evenodd;fill:url(#SVGID_00000144303872525693520590000012918575725395960978_);" d="
			M-0.5,530.2c0,0.1,0.2,0.2,0.5,0.2h1439.5c0.3,0,0.5-0.1,0.5-0.2c0-0.1-0.2-0.2-0.5-0.2H0C-0.2,530-0.5,530.1-0.5,530.2z"/>
		
			<linearGradient id="SVGID_00000085242925753909765100000007281837074933956499_" gradientUnits="userSpaceOnUse" x1="719.75" y1="-246.7684" x2="719.75" y2="-246.3904" gradientTransform="matrix(1 0 0 -1 0 292.0432)">
			<stop  offset="0" style="stop-color:#7172B0"/>
			<stop  offset="1" style="stop-color:#3E2296"/>
		</linearGradient>
		<path style="fill-rule:evenodd;clip-rule:evenodd;fill:url(#SVGID_00000085242925753909765100000007281837074933956499_);" d="
			M-0.5,538.6c0,0.1,0.2,0.2,0.5,0.2h1439.5c0.3,0,0.5-0.1,0.5-0.2c0-0.1-0.2-0.2-0.5-0.2H0C-0.2,538.4-0.5,538.5-0.5,538.6z"/>
		
			<linearGradient id="SVGID_00000163792678692509428470000001428038952034487979_" gradientUnits="userSpaceOnUse" x1="719.75" y1="-234.9614" x2="719.75" y2="-234.5844" gradientTransform="matrix(1 0 0 -1 0 292.0432)">
			<stop  offset="0" style="stop-color:#7172B0"/>
			<stop  offset="1" style="stop-color:#3E2296"/>
		</linearGradient>
		<path style="fill-rule:evenodd;clip-rule:evenodd;fill:url(#SVGID_00000163792678692509428470000001428038952034487979_);" d="
			M-0.5,526.8c0,0.1,0.2,0.2,0.5,0.2h1439.5c0.3,0,0.5-0.1,0.5-0.2c0-0.1-0.2-0.2-0.5-0.2H0C-0.2,526.6-0.5,526.7-0.5,526.8z"/>
		
			<linearGradient id="SVGID_00000063618217319215248470000018367113712164992170_" gradientUnits="userSpaceOnUse" x1="719.95" y1="-342.9784" x2="719.95" y2="-344.3334" gradientTransform="matrix(1 0 0 -1 0 292.0432)">
			<stop  offset="0" style="stop-color:#7172B0"/>
			<stop  offset="1" style="stop-color:#3E2296"/>
		</linearGradient>
		<path style="fill-rule:evenodd;clip-rule:evenodd;fill:url(#SVGID_00000063618217319215248470000018367113712164992170_);" d="
			M-0.8,635.7c0-0.4,0.4-0.7,1-0.7h1439.5c0.6,0,1,0.3,1,0.7s-0.4,0.7-1,0.7H0.2C-0.3,636.4-0.8,636.1-0.8,635.7z"/>
		
			<linearGradient id="SVGID_00000062885424763060376540000002437884173420199358_" gradientUnits="userSpaceOnUse" x1="1079" y1="-344.3568" x2="1079" y2="-407.3568" gradientTransform="matrix(1 0 0 -1 0 292.0432)">
			<stop  offset="0" style="stop-color:#7172B0"/>
			<stop  offset="0.6435" style="stop-color:#3E2296"/>
			<stop  offset="1" style="stop-color:#331B4A"/>
		</linearGradient>
		<path style="fill-rule:evenodd;clip-rule:evenodd;fill:url(#SVGID_00000062885424763060376540000002437884173420199358_);" d="
			M1078.5,699.4v-63h1v63H1078.5z"/>
		
			<linearGradient id="SVGID_00000041254585478377854050000002637825567808822939_" gradientUnits="userSpaceOnUse" x1="720" y1="-344.3568" x2="720" y2="-407.3568" gradientTransform="matrix(1 0 0 -1 0 292.0432)">
			<stop  offset="0" style="stop-color:#7172B0"/>
			<stop  offset="0.6435" style="stop-color:#3E2296"/>
			<stop  offset="1" style="stop-color:#331B4A"/>
		</linearGradient>
		<path style="fill-rule:evenodd;clip-rule:evenodd;fill:url(#SVGID_00000041254585478377854050000002637825567808822939_);" d="
			M719.5,699.4v-63h1v63H719.5z"/>
		
			<linearGradient id="SVGID_00000062903078523774560280000018138467593653174924_" gradientUnits="userSpaceOnUse" x1="359" y1="-344.3568" x2="359" y2="-407.3568" gradientTransform="matrix(1 0 0 -1 0 292.0432)">
			<stop  offset="0" style="stop-color:#7172B0"/>
			<stop  offset="0.6435" style="stop-color:#3E2296"/>
			<stop  offset="1" style="stop-color:#331B4A"/>
		</linearGradient>
		<path style="fill-rule:evenodd;clip-rule:evenodd;fill:url(#SVGID_00000062903078523774560280000018138467593653174924_);" d="
			M358.5,699.4v-63h1v63H358.5z"/>
		
			<linearGradient id="SVGID_00000145747113258111095920000012049769359518641850_" gradientUnits="userSpaceOnUse" x1="719.95" y1="-405.9966" x2="719.95" y2="-407.3516" gradientTransform="matrix(1 0 0 -1 0 292.0432)">
			<stop  offset="0" style="stop-color:#7172B0"/>
			<stop  offset="1" style="stop-color:#3E2296"/>
		</linearGradient>
		<path style="fill-rule:evenodd;clip-rule:evenodd;fill:url(#SVGID_00000145747113258111095920000012049769359518641850_);" d="
			M-0.8,698.7c0-0.4,0.4-0.7,1-0.7h1439.5c0.6,0,1,0.3,1,0.7s-0.4,0.7-1,0.7H0.2C-0.3,699.4-0.8,699.1-0.8,698.7z"/>
	</g>
</g>
<g id="Page-1" class="st44">
	<g id="About---header-v2" transform="translate(-969.000000, -3742.000000)">
		<g id="Group-4-Copy" transform="translate(998.000000, 3766.000000)">
			<g id="Mask">
				<g>
					<path id="path-2_00000060721001566331900650000013518126401266711696_" class="st45" d="M1189.3,116.4
						c34.8,21.4,79.4,32.9,117.7,66.4s70.1,88.8,65.6,141.7c-4.4,53-45.1,103.3-95.8,117.1c-50.7,13.8-111.3-9.1-154.2-33.4
						c-42.9-24.3-68.3-50-119.9-63.4c-51.5-13.4-129.3-14.7-151.2-43.2c-21.7-28.6,12.7-84.3,39.8-134.5
						c27.2-50.1,47.1-94.8,81.6-116.3c34.4-21.5,83.1-19.9,119.9-3.4C1129.7,63.8,1154.6,95,1189.3,116.4z"/>
				</g>
				<g>
					
						<linearGradient id="path-2_00000078729745538192352170000006366740638365572251_" gradientUnits="userSpaceOnUse" x1="2214.0698" y1="499.5797" x2="2213.572" y2="499.5797" gradientTransform="matrix(1060.9999 0 0 -825.3848 -2347754.75 412585.8125)">
						<stop  offset="0" style="stop-color:#5139FF"/>
						<stop  offset="1" style="stop-color:#3953FF"/>
					</linearGradient>
					
						<path id="path-2_00000016754408632118570340000016540028398122810522_" style="fill:none;stroke:url(#path-2_00000078729745538192352170000006366740638365572251_);stroke-width:2.4895;" d="
						M1189.3,116.4c34.8,21.4,79.4,32.9,117.7,66.4s70.1,88.8,65.6,141.7c-4.4,53-45.1,103.3-95.8,117.1
						c-50.7,13.8-111.3-9.1-154.2-33.4c-42.9-24.3-68.3-50-119.9-63.4c-51.5-13.4-129.3-14.7-151.2-43.2
						c-21.7-28.6,12.7-84.3,39.8-134.5c27.2-50.1,47.1-94.8,81.6-116.3c34.4-21.5,83.1-19.9,119.9-3.4
						C1129.7,63.8,1154.6,95,1189.3,116.4z"/>
				</g>
			</g>
			<g id="Mask-Copy" class="st47">
				<g>
					<path id="path-6_00000040559697821974839240000009798272835896022708_" class="st45" d="M1182.9,126.5
						c32.1,19.7,73.2,30.3,108.4,61c35.2,30.7,64.5,81.6,60.4,130.2c-4.1,48.7-41.5,94.9-88.2,107.6c-46.7,12.6-102.5-8.4-142-30.7
						c-39.5-22.3-62.8-45.9-110.4-58.3C963.7,324,892,322.8,871.9,296.6c-20-26.3,11.7-77.4,36.7-123.6c25-46,43.4-87.1,75.2-106.9
						c31.6-19.8,76.5-18.3,110.4-3.1C1128.1,78.1,1151,106.8,1182.9,126.5z"/>
				</g>
				<g>
					
						<linearGradient id="path-6_00000176018102936412341340000010058084590495691936_" gradientUnits="userSpaceOnUse" x1="2213.9253" y1="499.6735" x2="2213.4275" y2="499.6735" gradientTransform="matrix(976.9999 0 0 -758.2613 -2161652.75 379123.3125)">
						<stop  offset="0" style="stop-color:#5C39FF"/>
						<stop  offset="1" style="stop-color:#3949FF"/>
					</linearGradient>
					
						<path id="path-6_00000085250416950297889800000005118751264578807689_" style="fill:none;stroke:url(#path-6_00000176018102936412341340000010058084590495691936_);stroke-width:2.4895;" d="
						M1182.9,126.5c32.1,19.7,73.2,30.3,108.4,61c35.2,30.7,64.5,81.6,60.4,130.2c-4.1,48.7-41.5,94.9-88.2,107.6
						c-46.7,12.6-102.5-8.4-142-30.7c-39.5-22.3-62.8-45.9-110.4-58.3C963.7,324,892,322.8,871.9,296.6
						c-20-26.3,11.7-77.4,36.7-123.6c25-46,43.4-87.1,75.2-106.9c31.6-19.8,76.5-18.3,110.4-3.1
						C1128.1,78.1,1151,106.8,1182.9,126.5z"/>
				</g>
			</g>
			<g id="Mask-Copy-2" class="st49">
				<g>
					<path id="path-10_00000011005745665925928070000010682790273013915314_" class="st45" d="M1175.8,137.5
						c29,17.8,66.1,27.3,98,55.1c31.8,27.8,58.3,73.7,54.6,117.6c-3.7,43.9-37.5,85.7-79.7,97.1s-92.6-7.6-128.4-27.7
						c-35.7-20.1-56.8-41.5-99.8-52.6c-42.8-11.2-107.7-12.2-125.8-35.8c-18.1-23.7,10.6-69.9,33.1-111.6
						C950.4,138,967,101,995.7,83.1c28.6-17.9,69.2-16.5,99.8-2.8C1126.2,93.9,1146.9,119.7,1175.8,137.5z"/>
				</g>
				<g>
					
						<linearGradient id="path-10_00000015335053900257669640000015982038348307124642_" gradientUnits="userSpaceOnUse" x1="2213.7314" y1="499.7971" x2="2213.2334" y2="499.7971" gradientTransform="matrix(882.9999 0 0 -684.6987 -1953395.75 342450.75)">
						<stop  offset="0" style="stop-color:#5539FF"/>
						<stop  offset="1" style="stop-color:#3950FF"/>
					</linearGradient>
					
						<path id="path-10_00000073702806194543684320000015991093475593062833_" style="fill:none;stroke:url(#path-10_00000015335053900257669640000015982038348307124642_);stroke-width:2.4895;" d="
						M1175.8,137.5c29,17.8,66.1,27.3,98,55.1c31.8,27.8,58.3,73.7,54.6,117.6c-3.7,43.9-37.5,85.7-79.7,97.1s-92.6-7.6-128.4-27.7
						c-35.7-20.1-56.8-41.5-99.8-52.6c-42.8-11.2-107.7-12.2-125.8-35.8c-18.1-23.7,10.6-69.9,33.1-111.6
						C950.4,138,967,101,995.7,83.1c28.6-17.9,69.2-16.5,99.8-2.8C1126.2,93.9,1146.9,119.7,1175.8,137.5z"/>
				</g>
			</g>
			<g id="Mask-Copy-3" class="st51">
				<g>
					<path id="path-14_00000048496073132925309050000009628946759530177442_" class="st45" d="M1170.1,146.4
						c26.5,16.2,60.4,24.9,89.5,50.3s53.3,67.3,49.9,107.3c-3.4,40.1-34.3,78.3-72.8,88.7c-38.6,10.5-84.7-6.9-117.3-25.3
						c-32.7-18.4-51.9-37.9-91.2-48.1c-39.2-10.2-98.4-11.1-115-32.7c-16.5-21.6,9.6-63.9,30.3-101.9s35.9-71.8,62.1-88.1
						c26.1-16.3,63.2-15.1,91.2-2.6C1124.8,106.6,1143.7,130.2,1170.1,146.4z"/>
				</g>
				<g>
					
						<linearGradient id="path-14_00000137827771311746346760000005664681131358816434_" gradientUnits="userSpaceOnUse" x1="2213.5413" y1="499.9185" x2="2213.0432" y2="499.9185" gradientTransform="matrix(806.9999 0 0 -625.2827 -1785017.75 312830.5625)">
						<stop  offset="0" style="stop-color:#5C39FF"/>
						<stop  offset="1" style="stop-color:#3949FF"/>
					</linearGradient>
					
						<path id="path-14_00000137831638904388036780000002164042511956125099_" style="fill:none;stroke:url(#path-14_00000137827771311746346760000005664681131358816434_);stroke-width:2.4895;" d="
						M1170.1,146.4c26.5,16.2,60.4,24.9,89.5,50.3s53.3,67.3,49.9,107.3c-3.4,40.1-34.3,78.3-72.8,88.7
						c-38.6,10.5-84.7-6.9-117.3-25.3c-32.7-18.4-51.9-37.9-91.2-48.1c-39.2-10.2-98.4-11.1-115-32.7
						c-16.5-21.6,9.6-63.9,30.3-101.9s35.9-71.8,62.1-88.1c26.1-16.3,63.2-15.1,91.2-2.6C1124.8,106.6,1143.7,130.2,1170.1,146.4z"
						/>
				</g>
			</g>
			<g id="Mask-Copy-4" class="st53">
				<g>
					<path id="path-18_00000165952697521189369330000016233387028822016420_" class="st45" d="M1163.4,156.6
						c23.6,14.5,53.8,22.2,79.8,44.8c25.9,22.6,47.5,60,44.5,95.7c-3,35.8-30.6,69.8-64.9,79.1c-34.4,9.3-75.4-6.1-104.5-22.5
						s-46.3-33.8-81.3-42.9c-34.9-9.1-87.6-9.9-102.4-29.1c-14.7-19.3,8.6-56.9,27-90.8c18.4-33.8,32-64,55.3-78.5
						s56.3-13.4,81.2-2.3C1123,121.1,1139.9,142.2,1163.4,156.6z"/>
				</g>
				<g>
					
						<linearGradient id="path-18_00000180353157479153746560000004407909435706028986_" gradientUnits="userSpaceOnUse" x1="2213.2712" y1="500.0884" x2="2212.7734" y2="500.0884" gradientTransform="matrix(718.9999 0 0 -557.3787 -1590053.75 278978.9688)">
						<stop  offset="0" style="stop-color:#7639FF"/>
						<stop  offset="1" style="stop-color:#4239FF"/>
					</linearGradient>
					
						<path id="path-18_00000092447902111283352680000016731954014642217401_" style="fill:none;stroke:url(#path-18_00000180353157479153746560000004407909435706028986_);stroke-width:2.4895;" d="
						M1163.4,156.6c23.6,14.5,53.8,22.2,79.8,44.8c25.9,22.6,47.5,60,44.5,95.7c-3,35.8-30.6,69.8-64.9,79.1
						c-34.4,9.3-75.4-6.1-104.5-22.5s-46.3-33.8-81.3-42.9c-34.9-9.1-87.6-9.9-102.4-29.1c-14.7-19.3,8.6-56.9,27-90.8
						c18.4-33.8,32-64,55.3-78.5s56.3-13.4,81.2-2.3C1123,121.1,1139.9,142.2,1163.4,156.6z"/>
				</g>
			</g>
		</g>
	</g>
</g>
<g class="st55">
	<path class="st56" d="M1292.1,260.5c-12-45-63.6-53.2-108.2-28.9c-37.4,20.3-64.3,60.7-65.2,96.4c-1.1,40.1,30.5,70.1,78.8,60.6
		C1258.1,376.6,1306.4,313.6,1292.1,260.5z"/>
	<path class="st56" d="M1129.3,365.8c14.8,19.1,24.7,26.2,32.5,29.5c12.7,6.2,28.6,8.3,47,4.6c60.7-12,108.9-75,94.7-128.1
		c-1.7-6.3-4.2-11.9-7.3-16.8c-5.8-9.1-17.7-20.1-23.3-24.3"/>
	<path class="st56" d="M1269.8,269.2c-7.9-35.1-46.8-43.6-82.4-25.3c-30.8,15.8-53.1,49-53.1,78.1c-0.1,32.1,26.4,54,64.3,44.8
		C1243.7,355.9,1278.8,308.9,1269.8,269.2z"/>
	<g class="st57">
		<g>
			<polygon class="st58" points="1161.6,314.1 1180.5,309.7 1189.5,323.6 1179.4,340.9 			"/>
			<polygon class="st59" points="1161.6,314.1 1180.5,309.7 1189.5,323.6 1179.4,340.9 			"/>
		</g>
		<g>
			<polygon class="st58" points="1217.6,333.1 1209,319.3 1189.5,323.6 1179.4,340.9 			"/>
			<polygon class="st59" points="1217.6,333.1 1209,319.3 1189.5,323.6 1179.4,340.9 			"/>
		</g>
		<g>
			<polygon class="st60" points="1181.6,275.5 1191,290.5 1180.5,309.7 1161.6,314.1 			"/>
			<polygon class="st59" points="1181.6,275.5 1191,290.5 1180.5,309.7 1161.6,314.1 			"/>
		</g>
		<g>
			<polygon class="st60" points="1241.7,295.4 1220.5,300.4 1209,319.3 1217.6,333.1 			"/>
			<polygon class="st59" points="1241.7,295.4 1220.5,300.4 1209,319.3 1217.6,333.1 			"/>
		</g>
		<g>
			<polygon class="st61" points="1211.5,285.4 1191,290.5 1180.5,309.7 1189.5,323.6 			"/>
			<polygon class="st59" points="1211.5,285.4 1191,290.5 1180.5,309.7 1189.5,323.6 			"/>
		</g>
		<g>
			<polygon class="st61" points="1211.5,285.4 1220.5,300.4 1209,319.3 1189.5,323.6 			"/>
			<polygon class="st59" points="1211.5,285.4 1220.5,300.4 1209,319.3 1189.5,323.6 			"/>
		</g>
		<g>
			<polygon class="st62" points="1232.9,280.1 1211.5,285.4 1220.5,300.4 			"/>
			<polygon class="st59" points="1232.9,280.1 1211.5,285.4 1220.5,300.4 			"/>
		</g>
		<g>
			<polygon class="st62" points="1202.3,270 1211.5,285.4 1191,290.5 			"/>
			<polygon class="st59" points="1202.3,270 1211.5,285.4 1191,290.5 			"/>
		</g>
		<g>
			<polygon class="st58" points="1191,290.5 1202.3,270 1181.6,275.5 			"/>
			<polygon class="st59" points="1191,290.5 1202.3,270 1181.6,275.5 			"/>
		</g>
		<g>
			<polygon class="st58" points="1220.5,300.4 1232.9,280.1 1241.7,295.4 			"/>
			<polygon class="st59" points="1220.5,300.4 1232.9,280.1 1241.7,295.4 			"/>
		</g>
		<g>
			<polygon class="st63" points="1232.9,280.1 1211.5,285.4 1202.3,270 1223.7,264.3 			"/>
			<polygon class="st59" points="1232.9,280.1 1211.5,285.4 1202.3,270 1223.7,264.3 			"/>
		</g>
	</g>
</g>
<g class="st55">
	<path class="st64" d="M1036.3,276.6c24.2,4.8,40.1-10.3,39.5-30.4c-0.5-17.9-13.9-38.2-32.7-48.3c-22.4-12.2-48.2-8.1-54.3,14.5
		C981.7,239,1006,270.6,1036.3,276.6z"/>
	<path class="st64" d="M998.5,197.4c-2.8,2.1-8.8,7.6-11.7,12.2c-1.6,2.5-2.8,5.3-3.7,8.4c-7.1,26.6,17,58.2,47.5,64.2
		c9.2,1.9,17.2,0.8,23.6-2.3c3.9-1.7,8.9-5.2,16.3-14.8"/>
	<path class="st64" d="M1035.8,265.6c19,4.6,32.3-6.4,32.2-22.5c0-14.6-11.2-31.2-26.6-39.2c-17.9-9.2-37.4-4.9-41.3,12.7
		C995.6,236.6,1013.2,260.2,1035.8,265.6z"/>
	<g class="st57">
		<g>
			<polygon class="st58" points="1045.4,252.7 1040.4,244 1044.9,237 1054.3,239.2 			"/>
			<polygon class="st65" points="1045.4,252.7 1040.4,244 1044.9,237 1054.3,239.2 			"/>
		</g>
		<g>
			<polygon class="st58" points="1045.4,252.7 1040.4,244 1030.6,241.8 1026.3,248.7 			"/>
			<polygon class="st65" points="1045.4,252.7 1040.4,244 1030.6,241.8 1026.3,248.7 			"/>
		</g>
		<g>
			<polygon class="st60" points="1054.3,239.2 1044.9,237 1039.6,227.4 1044.3,219.9 			"/>
			<polygon class="st65" points="1054.3,239.2 1044.9,237 1039.6,227.4 1044.3,219.9 			"/>
		</g>
		<g>
			<polygon class="st60" points="1026.3,248.7 1030.6,241.8 1024.8,232.4 1014.2,229.8 			"/>
			<polygon class="st65" points="1026.3,248.7 1030.6,241.8 1024.8,232.4 1014.2,229.8 			"/>
		</g>
		<g>
			<polygon class="st61" points="1040.4,244 1044.9,237 1039.6,227.4 1029.3,224.8 			"/>
			<polygon class="st65" points="1040.4,244 1044.9,237 1039.6,227.4 1029.3,224.8 			"/>
		</g>
		<g>
			<polygon class="st61" points="1040.4,244 1030.6,241.8 1024.8,232.4 1029.3,224.8 			"/>
			<polygon class="st65" points="1040.4,244 1030.6,241.8 1024.8,232.4 1029.3,224.8 			"/>
		</g>
		<g>
			<polygon class="st62" points="1024.8,232.4 1029.3,224.8 1018.6,222.2 			"/>
			<polygon class="st65" points="1024.8,232.4 1029.3,224.8 1018.6,222.2 			"/>
		</g>
		<g>
			<polygon class="st62" points="1039.6,227.4 1029.3,224.8 1033.9,217.1 			"/>
			<polygon class="st65" points="1039.6,227.4 1029.3,224.8 1033.9,217.1 			"/>
		</g>
		<g>
			<polygon class="st58" points="1044.3,219.9 1033.9,217.1 1039.6,227.4 			"/>
			<polygon class="st65" points="1044.3,219.9 1033.9,217.1 1039.6,227.4 			"/>
		</g>
		<g>
			<polygon class="st58" points="1014.2,229.8 1018.6,222.2 1024.8,232.4 			"/>
			<polygon class="st65" points="1014.2,229.8 1018.6,222.2 1024.8,232.4 			"/>
		</g>
		<g>
			<polygon class="st63" points="1023.2,214.3 1033.9,217.1 1029.3,224.8 1018.6,222.2 			"/>
			<polygon class="st65" points="1023.2,214.3 1033.9,217.1 1029.3,224.8 1018.6,222.2 			"/>
		</g>
	</g>
</g>
<g class="st66">
	<path class="st67" d="M1097.1,177.1c-5.8,15,6.9,27.8,24.2,30.1c14.5,2,30.3-3.8,37.8-13.6c8.5-10.9,5.8-25.7-9.6-32.9
		C1130.2,151.7,1103.9,159.4,1097.1,177.1z"/>
	<path class="st67" d="M1163.9,180.9c-0.2-8.3-1.5-12.3-3-14.8c-2.3-4.3-6.3-8.1-12.1-10.9c-19.3-9-45.6-1.3-52.4,16.4
		c-0.8,2.1-1.3,4.2-1.4,6.2c-0.2,3.7,0.8,9.2,1.5,11.5"/>
	<path class="st67" d="M1105.1,179.2c-4.9,11.4,4.1,21.7,17.8,23.8c11.8,1.9,24.8-2.8,30.7-10.9c6.6-8.9,3.6-20.4-8.8-25.6
		C1130,160.4,1110.7,166.3,1105.1,179.2z"/>
	<g class="st57">
		<g>
			<polygon class="st58" points="1144.3,188.7 1138.2,186.1 1138.5,180.4 1144.8,177.6 			"/>
			<polygon class="st68" points="1144.3,188.7 1138.2,186.1 1138.5,180.4 1144.8,177.6 			"/>
		</g>
		<g>
			<polygon class="st58" points="1132.6,172 1132.2,177.6 1138.5,180.4 1144.8,177.6 			"/>
			<polygon class="st68" points="1132.6,172 1132.2,177.6 1138.5,180.4 1144.8,177.6 			"/>
		</g>
		<g>
			<polygon class="st60" points="1130.9,195.4 1131.3,189.3 1138.2,186.1 1144.3,188.7 			"/>
			<polygon class="st68" points="1130.9,195.4 1131.3,189.3 1138.2,186.1 1144.3,188.7 			"/>
		</g>
		<g>
			<polygon class="st60" points="1118.2,177.6 1125.2,180.5 1132.2,177.6 1132.6,172 			"/>
			<polygon class="st68" points="1118.2,177.6 1125.2,180.5 1132.2,177.6 1132.6,172 			"/>
		</g>
		<g>
			<polygon class="st61" points="1124.6,186.5 1131.3,189.3 1138.2,186.1 1138.5,180.4 			"/>
			<polygon class="st68" points="1124.6,186.5 1131.3,189.3 1138.2,186.1 1138.5,180.4 			"/>
		</g>
		<g>
			<polygon class="st61" points="1124.6,186.5 1125.2,180.5 1132.2,177.6 1138.5,180.4 			"/>
			<polygon class="st68" points="1124.6,186.5 1125.2,180.5 1132.2,177.6 1138.5,180.4 			"/>
		</g>
		<g>
			<polygon class="st62" points="1117.6,183.7 1124.6,186.5 1125.2,180.5 			"/>
			<polygon class="st68" points="1117.6,183.7 1124.6,186.5 1125.2,180.5 			"/>
		</g>
		<g>
			<polygon class="st62" points="1124,192.7 1124.6,186.5 1131.3,189.3 			"/>
			<polygon class="st68" points="1124,192.7 1124.6,186.5 1131.3,189.3 			"/>
		</g>
		<g>
			<polygon class="st58" points="1131.3,189.3 1124,192.7 1130.9,195.4 			"/>
			<polygon class="st68" points="1131.3,189.3 1124,192.7 1130.9,195.4 			"/>
		</g>
		<g>
			<polygon class="st58" points="1125.2,180.5 1117.6,183.7 1118.2,177.6 			"/>
			<polygon class="st68" points="1125.2,180.5 1117.6,183.7 1118.2,177.6 			"/>
		</g>
		<g>
			<polygon class="st63" points="1117.6,183.7 1124.6,186.5 1124,192.7 1116.9,189.9 			"/>
			<polygon class="st68" points="1117.6,183.7 1124.6,186.5 1124,192.7 1116.9,189.9 			"/>
		</g>
	</g>
</g>
</svg>
