<?xml version="1.0" encoding="utf-8"?>
<!-- Generator: Adobe Illustrator 27.4.0, SVG Export Plug-In . SVG Version: 6.00 Build 0)  -->
<svg version="1.1" id="katman_1" xmlns="http://www.w3.org/2000/svg" xmlns:xlink="http://www.w3.org/1999/xlink" x="0px" y="0px"
	 viewBox="0 0 283 64" style="enable-background:new 0 0 283 64;" xml:space="preserve">
<style type="text/css">
	.st0{fill:#FFFFFF;}
</style>
<g>
	<path class="st0" d="M24.4,9.4C24,9.6,23.7,9.8,23.3,10c-0.7,0.4-1.5,0.8-2.2,1.3c-0.2,0.1-0.4,0.2-0.7,0c-0.9-0.6-1.9-1.2-2.9-1.9
		c-0.2-0.1-0.3-0.1-0.5,0c-1.3,0.7-2.5,1.5-3.8,2.2s-2.6,1.5-3.9,2.2c-0.6,0.3-1.2,0.7-1.7,1c0,0.2,0,0.2,0,0.3s0,0.3,0,0.4
		c0,3.8,0,7.6,0,11.4c0,0.2,0.1,0.3,0.3,0.5c0.9,0.5,1.8,1,2.7,1.5c0.9,0.5,1.9,1.1,2.8,1.6c0,0,0.1,0.1,0.1,0c0-2.7,0-5.3,0-8
		c0.4,0.1,0.6,0.3,0.9,0.5c1.1,0.6,2.2,1.3,3.4,1.9c1,0.6,1.9,1.1,2.9,1.7s2,1.2,3.1,1.8c1.6,0.9,3.2,1.9,4.8,2.8
		c0.4,0.2,0.8,0.4,1.2,0.6c0.1,0.1,0.2,0.2,0.2,0.3c0,2.6,0,5.3,0,7.9c0,3.5,0,7,0,10.5c0,0.1,0,0.2,0,0.3c-0.3-0.2-0.6-0.4-0.9-0.5
		c-1.3-0.8-2.7-1.5-4-2.3c-1.3-0.7-2.5-1.5-3.8-2.2c-1.1-0.6-2.2-1.2-3.2-1.9c-1-0.6-2-1.2-3.1-1.8c-0.4-0.2-0.8-0.5-1.2-0.7
		c-0.1-0.1-0.2-0.2-0.2-0.3c0-1.4,0-2.9,0-4.3c0-0.6,0-1.2,0-1.8c0-0.1-0.1-0.2-0.2-0.3c-1.3-0.8-2.7-1.5-4-2.3
		c-1-0.5-1.9-1.1-2.9-1.6c-0.6-0.4-1.3-0.7-1.9-1.2C4.2,29.7,4,29.3,3.9,29s-0.1-0.5-0.1-0.8c0-4.7,0-9.4,0-14.1
		c0-0.9,0.4-1.5,1.1-1.9c1.5-0.9,3-1.7,4.5-2.6c1.5-0.9,3-1.7,4.5-2.6c0.8-0.5,1.7-1,2.5-1.4c0.7-0.4,1.5-0.4,2.2,0.1
		c1.9,1.2,3.8,2.4,5.7,3.6C24.3,9.3,24.4,9.3,24.4,9.4z"/>
	<path class="st0" d="M55.2,33.3C55.2,33.2,55.2,33.2,55.2,33.3c0-1.5,0-2.8,0-4.2c0-0.1,0-0.2,0.1-0.2c0.8-0.5,1.7-1,2.5-1.5
		C58,27.3,58,27.2,58,27c0-3.8,0-7.7,0-11.5c0-0.2,0-0.3,0-0.5c0-0.1-0.1-0.1-0.2-0.2c-1.1-0.6-2.2-1.2-3.2-1.9
		c-1-0.6-1.9-1.1-2.9-1.7c-1.2-0.7-2.3-1.3-3.5-2c-2.1,1.4-4.2,2.7-6.3,4.1c2.4,1.4,4.8,2.8,7.2,4.2c-0.2,0.2-0.5,0.3-0.7,0.4
		c-1.1,0.7-2.2,1.3-3.4,1.9c-1,0.6-2.1,1.2-3.1,1.8c-1.1,0.6-2.2,1.3-3.3,1.9c-1,0.6-2.1,1.2-3.1,1.8c-0.9,0.5-1.7,1-2.6,1.5
		c-0.1,0.1-0.2,0.1-0.4,0c-1.8-1.1-3.6-2.1-5.5-3.2c-1.4-0.7-3-1.6-4.6-2.6c-1.8-1-3.6-2.1-5.4-3.1c-0.2-0.1-0.4-0.2-0.6-0.3
		c0.4-0.2,0.8-0.5,1.1-0.7c0.8-0.5,1.7-1,2.5-1.4c1.7-1,3.5-2,5.2-3c1.2-0.7,2.5-1.4,3.7-2.1c1.2-0.7,2.5-1.4,3.7-2.1
		c0.1-0.1,0.2,0,0.3,0c1.6,0.9,3.3,1.9,4.9,2.8c0.3,0.2,0.5,0.2,0.7,0c1.5-1,3.1-2,4.6-3c1.3-0.8,2.5-1.7,3.8-2.5
		c0.7-0.4,1.5-0.5,2.2,0c1.7,1,3.4,2,5.1,2.9c1.4,0.8,2.8,1.7,4.3,2.5c0.8,0.5,1.6,0.9,2.4,1.4c0.5,0.3,0.7,0.8,0.7,1.4
		c0,4.9,0,9.8,0,14.6c0,0.7-0.4,1.2-1,1.6c-1.7,0.9-3.3,1.9-5,2.8C55.6,33,55.4,33.1,55.2,33.3z"/>
	<path class="st0" d="M18.9,48c0.4,0.2,0.7,0.4,1.1,0.6c0.8,0.5,1.6,1,2.5,1.4c0.1,0.1,0.2,0.2,0.2,0.3c0,0.8,0,1.5,0,2.3
		c0,0.1,0.1,0.2,0.2,0.3c1.1,0.7,2.3,1.3,3.4,2c1.2,0.7,2.4,1.4,3.5,2c1,0.5,1.9,1.1,2.9,1.7c0.1,0.1,0.2,0,0.2,0
		c2.1-1.2,4.1-2.4,6.2-3.6c1.2-0.7,2.4-1.4,3.6-2.1c0.1-0.1,0.2-0.1,0.2-0.3c0-1.9,0-3.8,0-5.7v-0.1c-0.3,0.2-0.6,0.3-0.8,0.5
		c-0.3,0.2-0.5,0.3-0.8,0.4c-0.3,0.1-0.6,0.4-0.9,0.5c-0.1,0.1-0.2,0.1-0.4,0.2h-0.1c-0.3,0.3-0.7,0.5-1.1,0.6
		c-0.1,0-0.1,0.2-0.3,0.2c-0.2,0.1-0.5,0.3-0.7,0.4c-0.6,0.4-1.3,0.7-1.9,1.1c-0.1,0-0.1,0.1-0.2,0c0-0.1,0-0.3,0-0.4
		c0-6.1,0-12.1,0-18.2c0-0.2,0.1-0.3,0.2-0.4c1.1-0.6,2.2-1.3,3.3-1.9c1-0.6,1.9-1.1,2.9-1.6c1-0.6,2-1.2,3-1.7
		c1.1-0.6,2.2-1.3,3.3-1.9c1-0.6,2.1-1.2,3.1-1.8c0.1-0.1,0.3-0.1,0.4-0.2c0.1,0.1,0.1,0.2,0.1,0.3c0,6.1,0,12.3,0,18.4
		c0,0.2-0.1,0.3-0.2,0.4c-1.1,0.7-2.3,1.3-3.4,2c-0.5,0.3-1.1,0.6-1.6,0.9c-0.1,0.1-0.2,0.2-0.2,0.3c0,2.9,0,5.9,0,8.8
		c0,1-0.4,1.6-1.2,2.1c-1.5,0.8-2.9,1.7-4.4,2.5c-1.5,0.9-3,1.7-4.5,2.6c-0.9,0.5-1.8,1.1-2.8,1.6c-0.7,0.4-1.4,0.4-2,0
		c-2-1.2-4.1-2.3-6.1-3.5c-1.8-1-3.5-2-5.3-3.1c-0.4-0.2-0.7-0.4-1-0.7c-0.3-0.4-0.5-0.8-0.5-1.2c0-1.9,0-3.8,0-5.8
		C18.9,48.1,18.9,48.1,18.9,48z"/>
</g>
<g>
	<path class="st0" d="M91.3,45.2l-5.5-9.8h-2.4v9.8h-5V20h9.4c1.9,0,3.6,0.3,5,1c1.4,0.7,2.4,1.6,3.1,2.8s1,2.5,1,3.9
		c0,1.7-0.5,3.1-1.4,4.5S93,34.5,91.1,35l6,10.2H91.3z M83.3,31.6h4.2c1.4,0,2.4-0.3,3.1-1s1-1.6,1-2.8c0-1.2-0.3-2-1-2.7
		c-0.7-0.6-1.7-1-3.1-1h-4.2V31.6z"/>
	<path class="st0" d="M101.3,29.7c0.8-1.6,1.9-2.8,3.3-3.6c1.4-0.8,2.9-1.3,4.6-1.3c1.5,0,2.8,0.3,3.9,0.9c1.1,0.6,2,1.4,2.7,2.3
		v-2.8h5.1v19.9h-5.1v-2.9c-0.6,0.9-1.5,1.7-2.7,2.3c-1.1,0.6-2.5,0.9-3.9,0.9c-1.7,0-3.2-0.4-4.6-1.3c-1.4-0.9-2.5-2.1-3.3-3.7
		c-0.8-1.6-1.2-3.4-1.2-5.4C100.1,33.1,100.5,31.3,101.3,29.7z M115.1,32c-0.5-0.9-1.1-1.5-1.9-2c-0.8-0.5-1.7-0.7-2.6-0.7
		s-1.8,0.2-2.6,0.7c-0.8,0.5-1.4,1.1-1.9,2c-0.5,0.9-0.7,1.9-0.7,3.1s0.2,2.2,0.7,3.2c0.5,0.9,1.1,1.6,1.9,2.1
		c0.8,0.5,1.7,0.7,2.6,0.7c0.9,0,1.8-0.2,2.6-0.7c0.8-0.5,1.5-1.1,1.9-2c0.5-0.9,0.7-1.9,0.7-3.1C115.8,34,115.5,32.9,115.1,32z"/>
	<path class="st0" d="M153.4,25.2l-5.8,19.9h-5.4l-3.6-13.9l-3.6,13.9h-5.5l-5.9-19.9h5.1l3.5,15.2l3.8-15.2h5.3l3.7,15.2l3.5-15.2
		H153.4z"/>
	<path class="st0" d="M173.9,34.4c0.9,1.2,1.4,2.5,1.4,4c0,1.3-0.3,2.5-1,3.5c-0.7,1-1.6,1.8-2.9,2.4c-1.2,0.6-2.7,0.9-4.4,0.9
		h-10.8V20h10.4c1.7,0,3.2,0.3,4.4,0.8s2.2,1.3,2.8,2.3c0.6,1,1,2.1,1,3.3c0,1.5-0.4,2.7-1.2,3.7c-0.8,1-1.8,1.7-3.1,2.1
		C171.8,32.5,173,33.2,173.9,34.4z M161.2,30.4h4.6c1.2,0,2.1-0.3,2.8-0.8s1-1.3,1-2.3c0-1-0.3-1.8-1-2.3c-0.6-0.6-1.6-0.8-2.8-0.8
		h-4.6V30.4z M169.1,40.2c0.7-0.6,1-1.4,1-2.4c0-1.1-0.4-1.9-1.1-2.5c-0.7-0.6-1.7-0.9-2.9-0.9h-5v6.8h5.1
		C167.5,41.1,168.5,40.8,169.1,40.2z"/>
	<path class="st0" d="M184.4,18.5v26.6h-5V18.5H184.4z"/>
	<path class="st0" d="M193,44.2c-1.5-0.9-2.7-2.1-3.6-3.6c-0.9-1.6-1.3-3.4-1.3-5.4s0.5-3.8,1.4-5.4c0.9-1.6,2.1-2.8,3.7-3.6
		c1.6-0.9,3.3-1.3,5.2-1.3s3.7,0.4,5.2,1.3c1.6,0.9,2.8,2.1,3.7,3.6c0.9,1.6,1.4,3.4,1.4,5.4s-0.5,3.8-1.4,5.4
		c-0.9,1.6-2.2,2.8-3.7,3.6c-1.6,0.9-3.3,1.3-5.3,1.3C196.3,45.5,194.5,45.1,193,44.2z M200.8,40.4c0.8-0.4,1.4-1.1,1.9-2
		c0.5-0.9,0.7-2,0.7-3.2c0-1.9-0.5-3.4-1.5-4.4s-2.2-1.5-3.7-1.5s-2.6,0.5-3.6,1.5s-1.5,2.5-1.5,4.4s0.5,3.4,1.4,4.4
		s2.1,1.5,3.6,1.5C199.1,41.1,200,40.9,200.8,40.4z"/>
	<path class="st0" d="M212.3,29.8c0.8-1.5,2-2.7,3.5-3.6c1.5-0.9,3.2-1.3,5.1-1.3c2.5,0,4.5,0.6,6.1,1.9c1.6,1.2,2.7,3,3.3,5.2h-5.4
		c-0.3-0.9-0.8-1.5-1.5-2c-0.7-0.5-1.5-0.7-2.5-0.7c-1.4,0-2.6,0.5-3.4,1.6s-1.3,2.5-1.3,4.4c0,1.9,0.4,3.4,1.3,4.4
		c0.8,1,2,1.6,3.4,1.6c2,0,3.4-0.9,4-2.7h5.4c-0.6,2.2-1.6,3.9-3.3,5.1c-1.6,1.3-3.7,1.9-6.1,1.9c-1.9,0-3.6-0.4-5.1-1.3
		c-1.5-0.9-2.7-2.1-3.5-3.6s-1.3-3.4-1.3-5.4S211.4,31.3,212.3,29.8z"/>
	<path class="st0" d="M245.8,45.2l-6.8-8.5v8.5h-5V18.5h5v15.2l6.7-8.5h6.6l-8.8,10l8.9,9.9H245.8z"/>
</g>
</svg>
