<?xml version="1.0" encoding="utf-8"?>
<!-- Generator: Adobe Illustrator 27.4.1, SVG Export Plug-In . SVG Version: 6.00 Build 0)  -->
<svg version="1.1" id="katman_1" xmlns="http://www.w3.org/2000/svg" xmlns:xlink="http://www.w3.org/1999/xlink" x="0px" y="0px"
	 viewBox="0 0 283 64" style="enable-background:new 0 0 283 64;" xml:space="preserve">
<style type="text/css">
	.st0{fill:#9461E3;}
	.st1{fill:none;}
	.st2{fill:#FFFFFF;}
	.st3{font-family:'Poppins-SemiBold';}
	.st4{font-size:36px;}
</style>
<g>
	<path class="st0" d="M24.4,9.4c-0.4,0.2-0.7,0.4-1.1,0.6c-0.7,0.4-1.5,0.8-2.2,1.3c-0.2,0.1-0.4,0.2-0.7,0
		c-0.9-0.6-1.9-1.2-2.9-1.9c-0.2-0.1-0.3-0.1-0.5,0c-1.3,0.7-2.5,1.5-3.8,2.2c-1.3,0.7-2.6,1.5-3.9,2.2c-0.6,0.3-1.2,0.7-1.7,1
		C7.6,15,7.6,15,7.6,15.1c0,0.1,0,0.3,0,0.4c0,3.8,0,7.6,0,11.4c0,0.2,0.1,0.3,0.3,0.5c0.9,0.5,1.8,1,2.7,1.5
		c0.9,0.5,1.9,1.1,2.8,1.6c0,0,0.1,0.1,0.1,0c0-2.7,0-5.3,0-8c0.4,0.1,0.6,0.3,0.9,0.5c1.1,0.6,2.2,1.3,3.4,1.9
		c1,0.6,1.9,1.1,2.9,1.7c1,0.6,2,1.2,3.1,1.8c1.6,0.9,3.2,1.9,4.8,2.8c0.4,0.2,0.8,0.4,1.2,0.6c0.1,0.1,0.2,0.2,0.2,0.3
		c0,2.6,0,5.3,0,7.9c0,3.5,0,7,0,10.5c0,0.1,0,0.2,0,0.3c-0.3-0.2-0.6-0.4-0.9-0.5c-1.3-0.8-2.7-1.5-4-2.3c-1.3-0.7-2.5-1.5-3.8-2.2
		c-1.1-0.6-2.2-1.2-3.2-1.9c-1-0.6-2-1.2-3.1-1.8c-0.4-0.2-0.8-0.5-1.2-0.7c-0.1-0.1-0.2-0.2-0.2-0.3c0-1.4,0-2.9,0-4.3
		c0-0.6,0-1.2,0-1.8c0-0.1-0.1-0.2-0.2-0.3c-1.3-0.8-2.7-1.5-4-2.3c-1-0.5-1.9-1.1-2.9-1.6c-0.6-0.4-1.3-0.7-1.9-1.2
		C4.2,29.7,4,29.3,3.9,29c-0.1-0.3-0.1-0.5-0.1-0.8c0-4.7,0-9.4,0-14.1c0-0.9,0.4-1.5,1.1-1.9c1.5-0.9,3-1.7,4.5-2.6
		c1.5-0.9,3-1.7,4.5-2.6c0.8-0.5,1.7-1,2.5-1.4c0.7-0.4,1.5-0.4,2.2,0.1c1.9,1.2,3.8,2.4,5.7,3.6C24.3,9.3,24.4,9.3,24.4,9.4z"/>
	<path class="st0" d="M55.2,33.3c0-0.1,0-0.1,0-0.1c0-1.4,0-2.7,0-4.1c0-0.1,0-0.2,0.1-0.2c0.8-0.5,1.7-1,2.5-1.5
		C58,27.3,58,27.2,58,27c0-3.8,0-7.7,0-11.5c0-0.2,0-0.3,0-0.5c0-0.1-0.1-0.1-0.2-0.2c-1.1-0.6-2.2-1.2-3.2-1.9
		c-1-0.6-1.9-1.1-2.9-1.7c-1.2-0.7-2.3-1.3-3.5-2c-2.1,1.4-4.2,2.7-6.3,4.1c2.4,1.4,4.8,2.8,7.2,4.2c-0.2,0.2-0.5,0.3-0.7,0.4
		c-1.1,0.7-2.2,1.3-3.4,1.9c-1,0.6-2.1,1.2-3.1,1.8c-1.1,0.6-2.2,1.3-3.3,1.9c-1,0.6-2.1,1.2-3.1,1.8c-0.9,0.5-1.7,1-2.6,1.5
		c-0.1,0.1-0.2,0.1-0.4,0c-1.8-1.1-3.6-2.1-5.5-3.2C25.6,22.9,24,22,22.4,21c-1.8-1-3.6-2.1-5.4-3.1c-0.2-0.1-0.4-0.2-0.6-0.3
		c0.4-0.2,0.8-0.5,1.1-0.7c0.8-0.5,1.7-1,2.5-1.4c1.7-1,3.5-2,5.2-3c1.2-0.7,2.5-1.4,3.7-2.1c1.2-0.7,2.5-1.4,3.7-2.1
		c0.1-0.1,0.2,0,0.3,0c1.6,0.9,3.3,1.9,4.9,2.8c0.3,0.2,0.5,0.2,0.7,0c1.5-1,3.1-2,4.6-3c1.3-0.8,2.5-1.7,3.8-2.5
		c0.7-0.4,1.5-0.5,2.2,0c1.7,1,3.4,2,5.1,2.9c1.4,0.8,2.8,1.7,4.3,2.5c0.8,0.5,1.6,0.9,2.4,1.4c0.5,0.3,0.7,0.8,0.7,1.4
		c0,4.9,0,9.8,0,14.6c0,0.7-0.4,1.2-1,1.6c-1.7,0.9-3.3,1.9-5,2.8C55.6,33,55.4,33.1,55.2,33.3z"/>
	<path class="st0" d="M18.9,48c0.4,0.2,0.7,0.4,1.1,0.6c0.8,0.5,1.6,1,2.5,1.4c0.1,0.1,0.2,0.2,0.2,0.3c0,0.8,0,1.5,0,2.3
		c0,0.1,0.1,0.2,0.2,0.3c1.1,0.7,2.3,1.3,3.4,2c1.2,0.7,2.4,1.4,3.5,2c1,0.5,1.9,1.1,2.9,1.7c0.1,0.1,0.2,0,0.2,0
		c2.1-1.2,4.1-2.4,6.2-3.6c1.2-0.7,2.4-1.4,3.6-2.1c0.1-0.1,0.2-0.1,0.2-0.3c0-1.9,0-3.8,0-5.7c0,0,0-0.1,0-0.1
		c-0.3,0.2-0.6,0.3-0.8,0.5c-0.3,0.2-0.5,0.3-0.8,0.4c-0.3,0.1-0.6,0.4-0.9,0.5c-0.1,0.1-0.2,0.1-0.4,0.2c0,0-0.1,0-0.1,0
		c-0.3,0.3-0.7,0.5-1.1,0.6c-0.1,0-0.1,0.2-0.3,0.2c-0.2,0.1-0.5,0.3-0.7,0.4c-0.6,0.4-1.3,0.7-1.9,1.1c-0.1,0-0.1,0.1-0.2,0
		c0-0.1,0-0.3,0-0.4c0-6.1,0-12.1,0-18.2c0-0.2,0.1-0.3,0.2-0.4c1.1-0.6,2.2-1.3,3.3-1.9c1-0.6,1.9-1.1,2.9-1.6c1-0.6,2-1.2,3-1.7
		c1.1-0.6,2.2-1.3,3.3-1.9c1-0.6,2.1-1.2,3.1-1.8c0.1-0.1,0.3-0.1,0.4-0.2c0.1,0.1,0.1,0.2,0.1,0.3c0,6.1,0,12.3,0,18.4
		c0,0.2-0.1,0.3-0.2,0.4c-1.1,0.7-2.3,1.3-3.4,2c-0.5,0.3-1.1,0.6-1.6,0.9c-0.1,0.1-0.2,0.2-0.2,0.3c0,2.9,0,5.9,0,8.8
		c0,1-0.4,1.6-1.2,2.1c-1.5,0.8-2.9,1.7-4.4,2.5c-1.5,0.9-3,1.7-4.5,2.6c-0.9,0.5-1.8,1.1-2.8,1.6c-0.7,0.4-1.4,0.4-2,0
		c-2-1.2-4.1-2.3-6.1-3.5c-1.8-1-3.5-2-5.3-3.1c-0.4-0.2-0.7-0.4-1-0.7c-0.3-0.4-0.5-0.8-0.5-1.2c0-1.9,0-3.8,0-5.8
		C18.9,48.1,18.9,48.1,18.9,48z"/>
</g>
<rect x="75.8" y="5.6" class="st1" width="200.5" height="55.3"/>
<text transform="matrix(1 0 0 1 75.8179 46.6089)" class="st2 st3 st4">RawBlock</text>
</svg>
